/* XPM */
static char *result[] = {
/* columns rows colors chars-per-pixel */
"41 41 168 2 ",
"   c black",
".  c #000100",
"X  c #010100",
"o  c #010201",
"O  c #020201",
"+  c #020302",
"@  c gray1",
"#  c #030403",
"$  c #030503",
"%  c #030603",
"&  c #050503",
"*  c #060703",
"=  c #070704",
"-  c #070A07",
";  c #070B07",
":  c #080804",
">  c #0B0C06",
",  c #191A0D",
"<  c #1A1B0E",
"1  c #151915",
"2  c #1E1F10",
"3  c #181B18",
"4  c #1B1F1B",
"5  c #1F221F",
"6  c #252614",
"7  c #262815",
"8  c #272815",
"9  c #282916",
"0  c #292A16",
"q  c #2C2D18",
"w  c #37391E",
"e  c #393B1F",
"r  c #222222",
"t  c #212421",
"y  c #222522",
"u  c #2C2E2C",
"i  c #3A3D3A",
"p  c #484A27",
"a  c #4F522B",
"s  c #50532C",
"d  c #56592F",
"f  c #595C30",
"g  c #676A38",
"h  c #6E723C",
"j  c #6F733C",
"k  c #70743D",
"l  c #71753D",
"z  c #72763E",
"x  c #73773E",
"c  c #404240",
"v  c #464646",
"b  c #464946",
"n  c #474A47",
"m  c #484B49",
"M  c #4A4C4A",
"N  c #4E504E",
"B  c #505250",
"V  c #545554",
"C  c #545654",
"Z  c #555755",
"A  c #777C41",
"S  c #606260",
"D  c #616361",
"F  c #626362",
"G  c #656765",
"H  c #7C7E7C",
"J  c #7D7E7D",
"K  c #F07056",
"L  c #F17157",
"P  c #7F8345",
"I  c #7F807F",
"U  c #7F817F",
"Y  c #878B49",
"T  c #888D4A",
"R  c #8B8F4B",
"E  c #90954E",
"W  c #949950",
"Q  c #969C52",
"!  c #9AA054",
"~  c #9DA255",
"^  c #ACB25D",
"/  c #ADB35E",
"(  c #AEB45E",
")  c #B1B760",
"_  c #A9AE75",
"`  c #E09E64",
"'  c #F99F6D",
"]  c #F99F6E",
"[  c #E6B76F",
"{  c #BAC165",
"}  c #BDC467",
"|  c #BEC567",
" . c #BFC668",
".. c #C1C768",
"X. c #C1C869",
"o. c #C7CE6C",
"O. c #CCCF6D",
"+. c #C9D06D",
"@. c #CAD16E",
"#. c #CBD26E",
"$. c #CAD26F",
"%. c #C9CF75",
"&. c #C7CD7C",
"*. c #C7CC7D",
"=. c #C6CC7E",
"-. c #C8CD7C",
";. c #CAD170",
":. c #CAD171",
">. c #CBD370",
",. c #C9D072",
"<. c #CCD370",
"1. c #C9D074",
"2. c #CED375",
"3. c #CFD276",
"4. c #D0D67B",
"5. c #818281",
"6. c #8D8E8D",
"7. c #8F918F",
"8. c #90928C",
"9. c #919391",
"0. c #9B9C9B",
"q. c #BBBCA9",
"w. c #B9BAAF",
"e. c #B3B4B3",
"r. c #B6B7B6",
"t. c #B7B7B7",
"y. c #B9B9B3",
"u. c #B8B8B5",
"i. c #BCBDBC",
"p. c #BEC19F",
"a. c #C4C984",
"s. c #C3C78D",
"d. c #C2C68F",
"f. c #C3C78F",
"g. c #C3C989",
"h. c #C3C88B",
"j. c #CED588",
"k. c #C0C397",
"l. c #C0C398",
"z. c #E2E6AE",
"x. c #E4E7B5",
"c. c #F4FDB0",
"v. c #F5FDB0",
"b. c #C1C1C1",
"n. c #C1C2C1",
"m. c gray80",
"M. c #CECFCE",
"N. c #D1D2D1",
"B. c #D2D3D2",
"V. c #E2E2E2",
"C. c #E7E7E7",
"Z. c #E8E9E8",
"A. c gray92",
"S. c #EFEFEF",
"D. c #F4F5E5",
"F. c #F8F8EF",
"G. c #F0F1F0",
"H. c gray97",
"J. c #F9F9F9",
"K. c #F9FAF9",
"L. c gray98",
"P. c #FBFBFB",
"I. c #FCFCF8",
"U. c #FEFFFB",
"Y. c gray99",
"T. c #FDFDFD",
"R. c #FEFEFE",
"E. c white",
/* pixels */
"#.#.#.#.#.#.#.#.#.#.#.#.#.#.#.#.#.#.#.#.#.#.4.D.Y.Y.Y.I.c.] K O.$.p.t.q.,.#.k.t.t.",
"#.#.#.#.#.#.#.#.#.#.#.#.o.} +.#.#.#.#.#.#.#.4.D.Y.T.E.U.v.' L 3.>.p.t.q.,.#.k.t.t.",
"#.#.#.#.#.#.#.#.#.#.#.@.( g h l l l l l _ z.x.F.R.N.6.8.j.[ ` 2.<.g.l.d.;.#.a.l.k.",
"#.#.#.#.#.#.#.#.#.#.#.+.W :             I E.Y.T.E.0.  : Q #.#.#.#.#.#.:.*.=.%.#.#.",
"#.#.#.#.#.#.#.o.| | | ..E =             I E.P.S.G.9.  * A )  .| | o.#.-.w.u.s.#.#.",
"#.#.#.#.#.#.#.W 0 9 9 0 2 O             I E.A.B u 3   O , 6 9 9 0 W #.&.y.t.f.#.#.",
"#.#.#.#.#.#.#.Y O                       I E.C.r                 O Y #.1.h.s.-.#.#.",
"#.#.#.#.o.W T f X . i Z C C C 4         I E.C.y                 X f T W o.#.#.#.#.",
"#.#.#.#.| 0   X   o e.R.L.L.P.F         U E.C.y                   X   0 | #.#.#.#.",
"#.#.+.o.{ 8   . o % r.E.P.H.H.S         H P.V.t                       8 { o.+.#.#.",
"#.#.R e w >   i e.r.Z.E.B.N b 1         5 m c %                       > w e R #.#.",
"#.#.l         Z T.E.T.E.b.@                                                 l #.#.",
"#.#.l         C L.Y.Y.E.b.$                                                 l #.#.",
"#.#.l         C L.Y.Y.E.b.$                                                 l #.#.",
"#.#.l         V L.Y.Y.E.n.$                                                 l #.#.",
"a s q   # J 0.i.P.J.7.D M .                                                 q s a ",
"        ; M.E.R.Y.H.v                                                             ",
"        - m.E.Y.Y.H.b                                                             ",
"        - m.E.Y.Y.H.b                                                             ",
"        ; M.E.E.E.K.n                                                             ",
"        + G 5.U U H 5                                                             ",
"                                                                                  ",
"                                                                                  ",
"                                                                                  ",
"                                                                                  ",
"                                                                                  ",
"                                                                                  ",
": : &                                                                       & : : ",
"! ~ d                                                                       d ~ ! ",
"#.#.l                                                                       l #.#.",
"#.#.l                                                                       l #.#.",
"#.#.l                                                                       l #.#.",
"#.#.z   O                                                               O   z #.#.",
"#.#./ Y P <                                                           < P Y / #.#.",
"#.#.#.#.| 9                                                           9 | #.#.#.#.",
"#.#.#.#...p 7 <                                                   < 7 p ..#.#.#.#.",
"#.#.#.#.@...X.P O                                               O P X...@.#.#.#.#.",
"#.#.#.#.#.#.#.Y O                                               O Y #.#.#.#.#.#.#.",
"#.#.#.#.#.#.#./ z l l x d &                           & d x l k j ^ #.#.#.#.#.#.#.",
"#.#.#.#.#.#.#.#.#.#.#.#.! :                           : ! #.#.#.#.#.#.#.#.#.#.#.#.",
"#.#.#.#.#.#.#.#.#.#.#.#.! :                           : ! #.#.#.#.#.#.#.#.#.#.#.#."
};
