/* XPM */
static char *_780ae9cfae94c54ae69c924c01ce9c4mZKa0QrpYvZB0QTq[] = {
/* columns rows colors chars-per-pixel */
"41 41 160 2 ",
"   c #101222",
".  c #131322",
"X  c #131323",
"o  c #1F1523",
"O  c #1A1324",
"+  c #1D1F26",
"@  c #281526",
"#  c #2C1626",
"$  c #3A1729",
"%  c #3B172A",
"&  c #1F2026",
"*  c #1F2027",
"=  c #232127",
"-  c #202427",
";  c #2D2527",
":  c #292328",
">  c #272B29",
",  c #342327",
"<  c #3E282C",
"1  c #34302B",
"2  c #38322A",
"3  c #353C2D",
"4  c #3B382D",
"5  c #3B3F2F",
"6  c #4B1C26",
"7  c #4F1D26",
"8  c #461F2C",
"9  c #4D192C",
"0  c #521C27",
"q  c #571A2B",
"w  c #54192C",
"e  c #511E2D",
"r  c #591A2C",
"t  c #621C2C",
"y  c #701B2F",
"u  c #771F2C",
"i  c #7E1E2E",
"p  c #6E1B30",
"a  c #681E30",
"s  c #6F1E31",
"d  c #7B1C31",
"f  c #41202B",
"g  c #4E212D",
"h  c #532528",
"j  c #50272E",
"k  c #5B2628",
"l  c #5A242A",
"z  c #5D242F",
"x  c #502B2F",
"c  c #46312E",
"v  c #4B322F",
"b  c #403C2F",
"n  c #59372B",
"m  c #533930",
"M  c #682127",
"N  c #62212F",
"B  c #6C2729",
"V  c #672829",
"C  c #722128",
"Z  c #7D2328",
"A  c #792D2A",
"S  c #65312B",
"D  c #3A402E",
"F  c #42492F",
"G  c #564232",
"H  c #5F4930",
"J  c #594E33",
"K  c #595534",
"L  c #565834",
"P  c #535C34",
"I  c #565F34",
"U  c #595934",
"Y  c #5D5834",
"T  c #5A5E35",
"R  c #61462F",
"E  c #605B35",
"W  c #675D35",
"Q  c #5B6235",
"!  c #5B6435",
"~  c #606937",
"^  c #656837",
"/  c #676937",
"(  c #6C7039",
")  c #6E7139",
"_  c #717C3B",
"`  c #757B3C",
"'  c #861D31",
"]  c #8B1C34",
"[  c #931E32",
"{  c #9E1D35",
"}  c #9C1E35",
"|  c #A31F34",
" . c #8E232B",
".. c #8F2929",
"X. c #9A2629",
"o. c #9A2729",
"O. c #9D262A",
"+. c #992A2A",
"@. c #902030",
"#. c #913736",
"$. c #AC242F",
"%. c #AC2A2A",
"&. c #B3252F",
"*. c #B3292A",
"=. c #B62A2B",
"-. c #A62330",
";. c #AA2033",
":. c #B42431",
">. c #B62431",
",. c #BE2631",
"<. c #A43534",
"1. c #C4272F",
"2. c #C42C2B",
"3. c #C2292E",
"4. c #CC2C2B",
"5. c #C9292E",
"6. c #CD2A2E",
"7. c #D22B2D",
"8. c #D52B2D",
"9. c #D92D2D",
"0. c #DD2E2C",
"q. c #DD2F2D",
"w. c #DE312E",
"e. c #DE332F",
"r. c #DF3832",
"t. c #E03933",
"y. c #E13E37",
"u. c #E24139",
"i. c #E3473E",
"p. c #CF4B43",
"a. c #C4574C",
"s. c #E54A40",
"d. c #E75347",
"f. c #EA5E4F",
"g. c #EB6454",
"h. c #EC6A57",
"j. c #EE735F",
"k. c #E87B65",
"l. c #79853C",
"z. c #7E893D",
"x. c #808D3E",
"c. c #8B9540",
"v. c #8C9540",
"b. c #8D9A41",
"n. c #96A443",
"m. c #98A744",
"M. c #9BA944",
"N. c #A2B146",
"B. c #A3B246",
"V. c #A4B246",
"C. c #A8B747",
"Z. c #ADBE48",
"A. c #F3886F",
"S. c #F79579",
"D. c #B2C249",
"F. c #B4C549",
"G. c #B8C94A",
"H. c #BACB4A",
"J. c #BBCC4B",
"K. c #BDCE4B",
/* pixels */
"K.K.K.K.K.K.K.K.K.K.K.K.K.K.K.K.K.K.K.K.K.K.K.K.K.K.K.K.K.K.K.K.K.K.K.K.K.K.K.K.K.",
"K.K.K.K.K.K.K.K.K.K.K.K.K.K.K.K.K.K.K.K.K.K.K.K.K.K.K.K.K.K.K.K.K.K.K.K.K.K.K.K.K.",
"K.K.K.K.K.K.K.K.K.K.K.K.K.K.K.K.K.K.K.K.K.K.K.K.K.K.K.K.K.K.K.K.K.K.K.K.K.K.K.K.K.",
"K.K.K.K.K.K.K.K.K.K.K.K.K.K.K.K.K.K.K.K.K.K.K.K.K.K.K.K.K.K.K.K.K.K.K.K.K.K.K.K.K.",
"K.K.K.K.K.K.K.K.K.K.K.K.K.K.K.K.K.K.K.K.K.K.K.K.K.K.K.K.K.K.K.K.K.K.K.K.K.K.K.K.K.",
"K.K.K.K.K.K.K.K.K.K.K.K.K.K.K.K.K.K.K.K.K.K.K.K.K.K.K.K.K.K.K.K.K.K.K.K.K.K.K.K.K.",
"K.K.K.K.K.K.K.K.K.K.K.K.K.K.K.K.K.K.K.K.K.K.K.K.K.K.K.K.K.K.K.K.K.K.K.K.K.K.K.K.K.",
"K.K.K.K.K.K.K.K.K.K.K.K.K.K.K.K.K.K.K.K.K.K.K.K.K.K.K.K.K.K.K.K.K.K.K.K.K.K.K.K.K.",
"K.K.K.K.K.K.K.K.K.K.K.K.K.K.K.K.K.K.K.K.K.K.K.K.K.K.K.K.K.K.K.K.K.K.K.K.K.K.K.K.K.",
"K.K.K.K.K.K.K.K.K.K.K.K.K.K.K.K.K.K.K.K.K.K.K.K.K.K.K.K.K.K.K.K.K.K.K.K.K.K.K.K.K.",
"K.K.K.K.K.K.K.K.K.K.K.K.K.K.K.K.K.K.K.K.K.K.J.K.K.K.K.K.K.K.K.K.K.K.K.K.K.K.K.K.K.",
"K.K.K.K.K.K.K.K.K.K.K.K.G._ 3       @ I m.m.Q -       3 _ G.K.K.K.K.K.K.K.K.K.K.K.",
"K.K.K.K.K.K.K.K.K.K.C.C.V.) b o + o : U v.v.L : O O O 4 ) N.C.K.K.K.K.K.K.K.K.K.K.",
"K.K.K.K.K.K.K.K.K.K.! ! Q H S M M M V R Y U m g 9 9 9 x G Q Q K.K.K.K.K.K.K.K.K.K.",
"K.K.K.K.K.K.K.K.K.K.+ + & h ..2.3.3.%.B , # e d ] ] ] a f = & J.K.K.K.K.K.K.K.K.K.",
"K.K.K.K.K.K.K.K.K.K.      0 +.w.y.s.p.#.l 0 u O.| -.} p $     K.K.K.K.K.K.K.K.K.K.",
"K.K.K.K.K.K.K.K.K.K.    X 6 +.w.d.j.k.a.<.O.*.3.,.| { p $ X   J.K.K.K.K.K.K.K.K.K.",
"K.K.K.K.K.K.K.K.K.K.    X 0 X.t.f.A.S.h.u.0.q.q.6.,.| p $     J.K.K.K.K.K.K.K.K.K.",
"K.K.K.K.K.K.K.K.K.K.    X 0 X.e.i.g.g.d.t.0.0.0.6.>.| p % X   K.K.K.K.K.K.K.K.K.K.",
"K.K.K.K.K.K.K.K.K.K.    . 0 X.q.q.r.r.e.q.0.0.0.6.&.{ p % X   K.K.K.K.K.K.K.K.K.K.",
"K.K.K.K.K.K.K.K.K.K.D D 5 n A X.*.4.0.0.0.9.8.5.>.@.y z v 5 5 J.K.K.K.K.K.K.K.K.K.",
"K.K.K.K.K.K.K.K.K.K.z.z.z.W v 6 Z =.0.0.0.8.1.&. .t $ c E x.x.K.K.K.K.K.K.K.K.K.K.",
"K.K.K.K.K.K.K.K.K.K.K.K.G.l.F - k +.2.4.8.5.$.[ p f = F l.G.K.K.K.K.K.K.K.K.K.K.K.",
"K.K.K.K.K.K.K.K.K.K.K.K.J.m.` Q R S C  .$.-.i r j G T ` n.J.K.K.K.K.K.K.K.K.K.K.K.",
"K.K.K.K.K.K.K.K.K.K.K.K.K.G.D.M./ 2 # w ' ' w @ 2 ^ M.Z.F.J.K.K.K.K.K.K.K.K.K.K.K.",
"K.K.K.K.K.K.K.K.K.K.K.K.K.K.K.D.c.I b x N N x b P v.D.K.K.K.K.K.K.K.K.K.K.K.K.K.K.",
"K.K.K.K.K.K.K.K.K.K.K.K.K.K.K.G.M.b.` J < < K ` v.N.G.K.K.K.K.K.K.K.K.K.K.K.K.K.K.",
"K.K.K.K.K.K.K.K.K.K.K.K.K.K.K.K.K.K.N.~ > > ~ N.J.J.J.K.K.K.K.K.K.K.K.K.K.K.K.K.K.",
"K.K.K.K.K.K.K.K.K.K.K.K.K.K.K.K.K.K.N.Q > > ~ N.K.K.K.K.K.K.K.K.K.K.K.K.K.K.K.K.K.",
"K.K.K.K.K.K.K.K.K.K.K.K.K.K.K.K.K.K.N.~ > > ~ V.K.K.K.K.K.K.K.K.K.K.K.K.K.K.K.K.K.",
"K.K.K.K.K.K.K.K.K.K.K.K.K.K.K.K.K.K.V.! > > Q N.K.K.K.K.K.K.K.K.K.K.K.K.K.K.K.K.K.",
"K.K.K.K.K.K.K.K.K.K.K.K.K.K.K.K.K.K.K.K.K.K.K.K.K.K.K.K.K.K.K.K.K.K.K.K.K.K.K.K.K.",
"K.K.K.K.K.K.K.K.K.K.K.K.K.K.K.K.K.K.K.K.K.K.K.K.K.K.K.K.K.K.K.K.K.K.K.K.K.K.K.K.K.",
"K.K.K.K.K.K.K.K.K.K.K.K.K.K.K.K.K.K.K.K.K.K.K.K.K.K.K.K.K.K.K.K.K.K.K.K.K.K.K.K.K.",
"K.K.K.K.K.K.K.K.K.K.K.K.K.K.K.K.K.K.K.K.K.K.K.K.K.K.K.K.K.K.K.K.K.K.K.K.K.K.K.K.K.",
"K.K.K.K.K.K.K.K.K.K.K.K.K.K.K.K.K.K.K.K.K.K.K.K.K.K.K.K.K.K.K.K.K.K.K.K.K.K.K.K.K.",
"K.K.K.K.K.K.K.K.K.K.K.K.K.K.K.K.K.K.K.K.K.K.K.K.K.K.K.K.K.K.K.K.K.K.K.K.K.K.K.K.K.",
"K.K.K.K.K.K.K.K.K.K.K.K.K.K.K.K.K.K.K.K.K.K.K.K.K.K.K.K.K.K.K.K.K.K.K.K.K.K.K.K.K.",
"K.K.K.K.K.K.K.K.K.K.K.K.K.K.K.K.K.K.K.K.K.K.K.K.K.K.K.K.K.K.K.K.K.K.K.K.K.K.K.K.K.",
"K.K.K.K.K.K.K.K.K.K.K.K.K.K.K.K.K.K.K.K.K.K.K.K.K.K.K.K.K.K.K.K.K.K.K.K.K.K.K.K.K.",
"K.K.K.K.K.K.K.K.K.K.K.K.K.K.K.K.K.K.K.K.K.K.K.K.K.K.K.K.K.K.K.K.K.K.K.K.K.K.K.K.K."
};
