/* XPM */
static char *_ede4ff5983745c2886a5584153d2201MJw6C5OPryFkS2qC[] = {
/* columns rows colors chars-per-pixel */
"41 41 173 2 ",
"   c #101222",
".  c #111222",
"X  c #121222",
"o  c #121323",
"O  c #151323",
"+  c #131623",
"@  c #151324",
"#  c #161324",
"$  c #191423",
"%  c #181324",
"&  c #1A1324",
"*  c #1C1425",
"=  c #171925",
"-  c #181823",
";  c #1A1B26",
":  c #181C25",
">  c #221426",
",  c #241426",
"<  c #261526",
"1  c #281526",
"2  c #2B1526",
"3  c #341628",
"4  c #381629",
"5  c #3D172A",
"6  c #292425",
"7  c #2A2525",
"8  c #202229",
"9  c #22222A",
"0  c #23252A",
"q  c #26272B",
"w  c #2A2A2D",
"e  c #312A26",
"r  c #342D26",
"t  c #322C28",
"y  c #332F2C",
"u  c #392D2F",
"i  c #2E332A",
"p  c #3B3126",
"a  c #30302F",
"s  c #35322C",
"d  c #333430",
"f  c #373631",
"g  c #333437",
"h  c #3A3A33",
"j  c #3D3C34",
"k  c #3E3C34",
"l  c #3F3D34",
"z  c #32353E",
"x  c #44172A",
"c  c #46172A",
"v  c #49182B",
"b  c #4F182C",
"n  c #52182C",
"m  c #5B1B2A",
"M  c #5E1C2A",
"N  c #59192D",
"B  c #671F28",
"V  c #601A2F",
"C  c #621A2F",
"Z  c #681F29",
"A  c #731A30",
"S  c #7C1B32",
"D  c #7D1B32",
"F  c #4A3B27",
"G  c #493B28",
"H  c #5C2431",
"J  c #692028",
"K  c #3F462F",
"L  c #584529",
"P  c #5A4B2F",
"I  c #4C4A39",
"U  c #4D4B3A",
"Y  c #5D4038",
"T  c #4D5433",
"R  c #4D5134",
"E  c #535C34",
"W  c #5D5538",
"Q  c #585E38",
"!  c #5B583E",
"~  c #5D5A3E",
"^  c #5F5C3F",
"/  c #6B542B",
"(  c #795B2C",
")  c #6E5C33",
"_  c #616A37",
"`  c #6F6038",
"'  c #5B3040",
"]  c #5E5D4B",
"[  c #5D5D4D",
"{  c #524D55",
"}  c #50565C",
"|  c #5B5058",
" . c #5C605B",
".. c #5C605E",
"X. c #666242",
"o. c #6F6B44",
"O. c #736D45",
"+. c #757344",
"@. c #787247",
"#. c #7E7849",
"$. c #78755F",
"%. c #6E7267",
"&. c #871B33",
"*. c #921C35",
"=. c #931C35",
"-. c #981D35",
";. c #9B1D35",
":. c #AF2232",
">. c #B42331",
",. c #CC2A2E",
"<. c #D12B2D",
"1. c #966F2D",
"2. c #977533",
"3. c #987533",
"4. c #997936",
"5. c #A0752D",
"6. c #81794A",
"7. c #87794B",
"8. c #837D4B",
"9. c #838F3F",
"0. c #C89030",
"q. c #CC9D3D",
"w. c #D69D34",
"e. c #D09D39",
"r. c #8B844E",
"t. c #978140",
"y. c #9D8644",
"u. c #9E8B47",
"i. c #90874F",
"p. c #938B50",
"a. c #9D9452",
"s. c #A28B44",
"d. c #A19854",
"f. c #A79E56",
"g. c #B99E53",
"h. c #93A143",
"j. c #9EAC45",
"k. c #B5A151",
"l. c #B2A759",
"z. c #B7AB5B",
"x. c #9F9B69",
"c. c #9E9C6E",
"v. c #DEB84D",
"b. c #D3B654",
"n. c #E5B949",
"m. c #CABD60",
"M. c #BDCE4B",
"N. c #E8C454",
"B. c #D8C965",
"V. c #DACA65",
"C. c #DDCC66",
"Z. c #E1D067",
"A. c #E9D566",
"S. c #E6D669",
"D. c #EDDC6B",
"F. c #F9E067",
"G. c #F1E06C",
"H. c #FAE86F",
"J. c #FCEA6F",
"K. c #FDED70",
"L. c #9CA087",
"P. c #9BA18D",
"I. c #BDBB82",
"U. c #A2A69D",
"Y. c #B8C3B3",
"T. c #D5CF82",
"R. c #D5D087",
"E. c #ECE086",
"W. c #D0D5AB",
"Q. c #D8DBAF",
"!. c #C3CDB6",
"~. c #D0D6B2",
"^. c #E0E9C1",
/* pixels */
"M.M.M.M.M.M.M.M.M.M.M.M.M.M.M.M.M.M.M.M.M.M.M.M.M.M.M.M.M.M.M.M.M.M.M.M.M.M.M.M.M.",
"M.M.M.M.M.M.M.M.M.M.M.M.M.M.M.M.M.M.M.M.M.M.M.M.M.M.M.M.M.M.M.M.M.M.M.M.M.M.M.M.M.",
"M.M.M.M.M.M.M.M.M.M.M.M.M.M.M.M.M.M.M.M.M.M.M.M.M.M.M.M.M.M.M.M.M.M.M.M.M.M.M.M.M.",
"M.M.M.M.M.M.M.M.M.M.M.M.M.M.M.M.M.M.M.M.M.M.M.M.M.M.M.M.M.M.M.M.M.M.M.M.M.M.M.M.M.",
"M.M.M.M.M.M.h.K     ; _ M.M.M.M.M.M.M.M.M.M.M.M.M.M.M.M._ :     K h.M.M.M.M.M.M.M.",
"M.M.M.M.M.M.h.K     : _ M.M.M.M.M.M.M.M.M.M.M.M.M.M.M.M._ :     K h.M.M.M.M.M.M.M.",
"M.M.M.M.M.j.9.R q ; - E j.j.j.j.j.j.j.j.j.j.j.j.j.j.j.j.E : ; q R r.j.j.M.M.M.M.M.",
"M.M.M.M.M.T Q +.+.h + s T T T T T T T T T T T T T T T T i # h +.+.Q T T M.M.M.M.M.",
"M.M.M.M.M.  d d.B.~                     o o     +           ) B.d.d     M.M.M.M.M.",
"M.M.M.M.M.  d d.B.]   2 x x c c v x x x v x v x x c x x 2   ] B.d.d     M.M.M.M.M.",
"M.M.M.M.M.  s d.B.) O v &.&.&.&.&.&.&.&.&.&.&.&.&.&.&.&.v O ~ B.d.d     M.M.M.M.M.",
"M.M.M.M.M.  g x.T.] $ M :.:.:.>.:.>.:.:.:.>.:.>.>.:.:.:.m O ] R.x.g     M.M.M.M.M.",
"M.M.M.M.M.  z L.W...$ J ,.,.,.,.,.,.,.,.,.,.,.,.,.,.,.,.B $ [ ~.L.z     M.M.M.M.M.",
"M.M.M.M.M.  z P.~...$ J <.<.<.,.<.<.<.<.<.<.<.<.<.<.<.<.Z $ ..~.P.z     M.M.M.M.M.",
"M.M.M.M.M.  g c.R.]   M >.>.>.>.>.>.>.>.>.>.>.>.>.>.>.>.M * [ R.c.g     M.M.M.M.M.",
"M.M.M.M.M.  d d.B.] O n ;.;.;.;.*.*.*.*.=.=.*.*.-.;.;.;.n o ^ B.d.d     M.M.M.M.M.",
"M.M.M.M.M.  d d.B.) # n ;.;.;.D N b b b b b b N D ;.;.;.n # ~ V.d.d     M.M.M.M.M.",
"M.M.M.M.M.  d d.B.] # b ;.;.;.H , * # # % % % 1 C ;.;.;.n * ] V.d.d     M.M.M.M.M.",
"M.M.M.M.M.  d d.B.] o 5 V V C H { } } } } } } { ' C C C 3   ! V.d.d     M.M.M.M.M.",
"M.M.M.M.M.  d d.B.Q o * 2 2 , | U.Y.Y.Y.Y.Y.Y.U.| 1 , 1 #   ) V.d.d     M.M.M.M.M.",
"M.M.M.M.M.  d d.C.@.d f h u r $.Q.^.!.Y.Y.!.^.Q.$.p d h f f #.Z.d.d     M.M.M.M.M.",
"M.M.M.M.M.  d d.G.m.a.a.d.7.5.g.E.I.%.} } %.I.E.g.1.7.a.a.a.m.G.d.d     M.M.M.M.M.",
"M.M.M.M.M.  a p.S.S.S.S.S.v.w.n.F.d.d     d d.F.n.w.v.S.S.S.Z.S.p.a     M.M.M.M.M.",
"M.M.M.M.M.o 8 U O.O.O.O.O.) ) s.A.d.d     d d.A.s./ ) O.O.O.O.O.U 8     M.M.M.M.M.",
"M.M.M.M.M.  o # : : = : = & ; X.C.a.d     a d.B.) = ; ; ; ; ; = = o o   M.M.M.M.M.",
"M.M.M.M.M.  ; p F 6 # , 5 5 v F 8.#.X.! ! ` 6.7.F 5 5 5 , @ 0 G p :     M.M.M.M.M.",
"M.M.M.M.M.  7 ( 5.F + x D D D H u ] f.m.m.f.] u H S S S v # G 3.( 7     M.M.M.M.M.",
"M.M.M.M.M.  t 4.q.P O 5 A A A c $ k i.z.z.i.h * b S A A 5 * P q.2.t     M.M.M.M.M.",
"M.M.M.M.M.  a u.b.W + , 3 3 3 , . 8 j I I l 9 # > 3 3 3 > o W b.u.s     M.M.M.M.M.",
"M.M.M.M.M.  s d.B.O.0 0 0 0 0 0 6 q q 8 0 0 0 0 0 0 0 9 9 0 O.B.a.f     M.M.M.M.M.",
"M.M.M.M.M.o d d.D.l.8.8.8.8.8.8.8.8.8.8.8.8.8.8.8.8.8.8.8.8.l.D.d.a     M.M.M.M.M.",
"M.M.M.M.M.o d d.J.J.H.H.H.H.H.H.H.H.H.H.H.H.H.H.H.H.H.H.H.H.K.K.d.f     M.M.M.M.M.",
"M.M.M.M.M.  a y.N.k.r.r.r.r.r.r.r.r.r.r.r.r.r.r.r.r.r.r.r.r.k.N.y.r     M.M.M.M.M.",
"M.M.M.M.M.  t 3.q.) w w w w w w w w w w w w w w w w w w w w ) e.3.e     M.M.M.M.M.",
"M.M.M.M.M.  e 1.0.L                                         L 0.1.t     M.M.M.M.M.",
"M.M.M.M.M.M.M.M.M.M.M.M.M.M.M.M.M.M.M.M.M.M.M.M.M.M.M.M.M.M.M.M.M.M.M.M.M.M.M.M.M.",
"M.M.M.M.M.M.M.M.M.M.M.M.M.M.M.M.M.M.M.M.M.M.M.M.M.M.M.M.M.M.M.M.M.M.M.M.M.M.M.M.M.",
"M.M.M.M.M.M.M.M.M.M.M.M.M.M.M.M.M.M.M.M.M.M.M.M.M.M.M.M.M.M.M.M.M.M.M.M.M.M.M.M.M.",
"M.M.M.M.M.M.M.M.M.M.M.M.M.M.M.M.M.M.M.M.M.M.M.M.M.M.M.M.M.M.M.M.M.M.M.M.M.M.M.M.M.",
"M.M.M.M.M.M.M.M.M.M.M.M.M.M.M.M.M.M.M.M.M.M.M.M.M.M.M.M.M.M.M.M.M.M.M.M.M.M.M.M.M.",
"M.M.M.M.M.M.M.M.M.M.M.M.M.M.M.M.M.M.M.M.M.M.M.M.M.M.M.M.M.M.M.M.M.M.M.M.M.M.M.M.M."
};
