/* XPM */
static char *result[] = {
/* columns rows colors chars-per-pixel */
"41 41 108 2 ",
"   c #178901",
".  c #1A8901",
"X  c #438C14",
"o  c #769134",
"O  c #AC9451",
"+  c #B79558",
"@  c #B99558",
"#  c #C2965F",
"$  c #CA9663",
"%  c #D09766",
"&  c #E39A74",
"*  c #EF9A79",
"=  c #F49C7E",
"-  c #D9BF6E",
";  c #DEBA71",
":  c #D2BE7A",
">  c #EEA47B",
",  c #E0B771",
"<  c #E0B870",
"1  c #BFC661",
"2  c #C1C762",
"3  c #C5CC64",
"4  c #C8CF65",
"5  c #CFCD69",
"6  c #D4C56C",
"7  c #D1CA6A",
"8  c #CBD267",
"9  c #CCD36A",
"0  c #CFC773",
"q  c #D5CD77",
"w  c #DFC17E",
"e  c #CFD573",
"r  c #D0D675",
"t  c #E97BBA",
"y  c #FD3CF4",
"u  c #FF36FA",
"i  c #FF39FA",
"p  c #EB75C2",
"a  c #F27CD5",
"s  c #FA46EC",
"d  c #FA48EC",
"f  c #FA5BEC",
"g  c #FD40F4",
"h  c #FF44FA",
"j  c #FF4CFA",
"k  c #FF5EFB",
"l  c #FF61FB",
"z  c #FF6BFB",
"x  c #FD78F5",
"c  c #FF75FB",
"v  c #D7AE8A",
"b  c #D7BC8A",
"n  c #F5A285",
"m  c #F5A78C",
"M  c #E38CAB",
"N  c #F8BEAA",
"B  c #E6BCB4",
"V  c #D6C386",
"C  c #D7C78B",
"Z  c #DBD284",
"A  c #D5DA83",
"S  c #D7DD8B",
"D  c #D9DE8E",
"F  c #D9DE90",
"G  c #DCE097",
"H  c #DEE29D",
"J  c #F1C1A0",
"K  c #FAC6B5",
"L  c #F9C8B7",
"P  c #FACCBC",
"I  c #EED9B5",
"U  c #DFE3A0",
"Y  c #E1E5A6",
"T  c #E3E7AF",
"R  c #E7EAB9",
"E  c #E9ECBE",
"W  c #FA84ED",
"Q  c #FF83FC",
"!  c #FF94FC",
"~  c #FDA6F7",
"^  c #FFA4FD",
"/  c #FFB1FD",
"(  c #FFB9FD",
")  c #FAD3C4",
"_  c #FBD9CD",
"`  c #EFC3D0",
"'  c #FBDDD3",
"]  c #F3DDDB",
"[  c #EBEEC6",
"{  c #F3E5C8",
"}  c #EFF1CF",
"|  c #F0E7D3",
" . c #F5E8D4",
".. c #EFF1D1",
"X. c #F0F2D4",
"o. c #F3F4DB",
"O. c #F8CFEA",
"+. c #FFC4FD",
"@. c #FFD4FF",
"#. c #FCEBE5",
"$. c #FCF3ED",
"%. c #F7F8E8",
"&. c #F9FAEC",
"*. c #FFE2FD",
"=. c #FEF7F5",
"-. c #FBFBF2",
";. c #FFF2FE",
":. c #FFFFFE",
/* pixels */
"8 8 8 8 8 9 8 8 8 8 8 8 8 8 9 9 9 8 9 9 9 9 9 9 9 9 9 8 8 8 8 8 8 8 8 8 8 8 8 8 8 ",
"8 8 8 9 8 8 8 8 8 8 8 8 8 8 9 Y X.} } } } ..} } } } E e 8 8 8 8 8 8 8 8 8 8 8 8 8 ",
"4 8 8 8 8 8 8 8 8 8 8 8 8 9 U o.:.:.:.:.:.:.:.:.:.:.-.Y r 8 8 8 8 8 9 8 8 8 8 8 8 ",
"5 8 8 8 8 4 4 8 8 8 8 8 9 F &.:.:.:.:.:.:.:.:.:.:.:.:.:.Y r 8 8 8 8 8 8 8 9 8 8 8 ",
"9 8 9 8 8 3 4 8 8 8 8 8 F -.:.:.:.:.:.:.:.:.:.:.:.:.:.:.:.T 9 9 8 8 8 8 8 8 8 8 8 ",
"9 9 8 8 8 4 4 9 8 8 8 Y &.:.:.:.:.:.:.:.:.:.:.:.:.:.:.:.:.&.E 9 8 8 8 4 8 8 8 8 8 ",
"9 9 8 8 8 8 9 8 8 8 8 T :.:.P K K K K K K K K K K K K K $.:.X.9 8 8 4 8 8 8 8 8 8 ",
"8 8 9 8 8 4 4 8 8 8 8 T =._ m $ O @ * = = = * + O $ = n P $.X.9 8 8 8 8 8 8 8 8 8 ",
"8 4 8 8 8 1 4 8 8 8 8 T #.n = o   X & = = = & X   o = = = )  .9 8 8 8 8 8 8 8 8 8 ",
"8 8 8 8 8 1 3 8 8 8 8 T #.n = o . X & n = = & X   o = = = ) X.9 8 8 8 4 4 4 8 8 8 ",
"8 4 4 8 8 4 8 8 8 8 8 T =.' m % + # * = = = = # @ % = n ) $.X.9 8 8 4 8 8 8 8 8 8 ",
"8 8 8 8 8 4 8 8 8 8 8 T :.:.) P P P P L P L P P P P P P =.:.X.9 8 4 4 8 9 8 8 8 8 ",
"8 8 8 8 8 8 8 8 8 8 8 H %.:.:.:.:.:.:.:.:.:.:.:.:.:.:.:.:.&.R 9 8 4 3 4 8 8 8 8 8 ",
"8 8 8 8 8 8 8 8 8 8 8 8 D &.:.:.:.:.:.:.:.:.:.:.:.:.:.:.=.T 9 9 8 8 4 8 8 9 8 8 8 ",
"8 8 8 8 8 8 8 8 8 8 8 8 9 D &.:.:.:.:.:.:.:.:.:.:.:.:.:.H r 8 8 8 8 8 8 8 8 8 9 8 ",
"8 8 8 8 8 8 8 8 8 8 8 8 8 9 G o.:.:.:.:.:.:.:.:.:.:.&.Y r 8 8 8 8 4 8 8 8 8 8 8 9 ",
"8 8 9 8 8 8 8 8 8 8 8 8 8 8 8 U ] ( ( ( ( ( ( ( ( O.R 9 8 8 8 8 8 4 8 9 8 8 8 8 8 ",
"8 8 8 8 8 8 8 8 8 8 8 8 8 8 8 0 M u i i i i i i i p 8 8 8 8 8 8 8 8 8 4 8 8 8 8 8 ",
"9 8 8 8 8 8 8 9 8 8 8 8 8 9 5 t y i i i i i i i i p 9 8 9 9 8 8 8 8 8 8 8 8 8 8 8 ",
"8 8 8 9 8 8 8 8 8 8 8 8 A | a s i i i i i i i i u W o.o.o.H 9 8 8 8 8 8 8 8 8 8 8 ",
"8 9 8 8 8 8 8 8 8 8 8 D [ ;.k u i i i i i i i i i l / :.:.I - , ; 7 8 8 8 8 8 8 8 ",
"8 8 8 8 8 8 9 8 8 8 A [ :.;.k u i i i i i i i i i u j +.;.P = = = - 8 4 8 8 8 8 8 ",
"8 8 8 8 8 8 8 8 8 9 ..:.:.;.k u i i i i i i i i i i i h @.P = = = - 8 4 8 8 8 8 8 ",
"8 8 8 8 8 8 8 8 8 9 ..:.:.;.k u i i i i i i i i i i u h @.L = = = - 8 3 8 8 8 8 8 ",
"8 8 8 8 8 8 8 8 r E -.:.*.Q j i i i i i i i i i i i i g B Z 6 ; - 5 8 2 8 8 8 8 8 ",
"8 8 8 8 8 8 8 5 w ) _ { ` i i i i i i i i i i i i i i g v 8 8 9 8 8 3 3 8 8 8 8 8 ",
"8 8 8 8 8 8 8 6 = = = < v g i i i i i i i i i i i i i g v 8 8 8 8 8 8 4 8 8 8 8 8 ",
"8 8 8 8 8 8 8 - = = = < v g i i i i i i i i i i i i i y v 8 8 9 8 4 4 3 8 8 8 8 8 ",
"8 8 8 8 8 8 8 - = = = < v y u u i i i i i i i u u u u y v 8 8 8 8 8 8 4 8 8 8 8 8 ",
"8 9 8 8 8 8 8 7 ; ; , 6 v y u u u u i i i i h ! ^ ^ ^ ~ C 8 8 8 8 4 4 8 8 8 8 8 8 ",
"8 8 8 8 8 8 8 8 8 8 8 8 b x c c c z i i i i j *.:.:.:.-.S 8 8 8 8 4 8 8 8 8 8 8 8 ",
"8 9 8 8 8 8 8 8 8 8 8 4 S :.:.:.:.*.f d d d f *.:.:.:.:.S 8 8 8 8 8 8 8 8 8 8 8 8 ",
"8 8 8 8 8 8 8 8 8 8 8 8 S -.:.:.:.%.V 0 : : V %.:.:.:.:.S 8 9 8 8 8 8 8 8 8 8 8 8 ",
"8 8 8 8 8 8 8 8 8 8 8 8 q J N N N J 7 9 8 5 r %.:.:.:.=.S 8 8 8 8 9 8 8 8 8 8 8 8 ",
"8 8 8 8 8 8 8 8 8 8 8 8 6 = = = = > 5 8 8 8 r %.:.:.:.:.D 8 8 8 8 8 8 8 8 8 8 8 8 ",
"8 8 8 8 8 8 8 8 8 8 8 8 6 = = = = > 5 8 8 8 r  .$.#.$. .A 9 8 8 8 8 8 8 8 8 8 8 8 ",
"8 8 8 8 8 8 8 8 8 8 8 8 6 = = = = > 5 8 9 9 9 > n n n n 6 8 8 8 8 8 8 8 8 8 8 8 8 ",
"8 8 8 9 8 8 8 8 9 8 8 8 6 = = = = = 5 8 8 5 9 > = = = = 6 8 8 8 8 8 8 8 8 8 8 8 9 ",
"8 8 8 8 8 8 8 8 8 8 8 8 7 ; - - - 6 5 8 8 8 5 > = = = = 6 8 8 8 9 8 8 4 8 8 8 8 8 ",
"8 8 8 8 8 8 8 8 9 8 8 8 8 8 8 8 8 8 8 8 8 8 5 > = = = = 6 8 8 8 8 8 8 8 8 8 8 8 8 ",
"8 8 8 8 8 1 3 8 8 8 8 8 9 8 8 8 8 8 8 8 8 8 5 > = = = = 6 8 8 8 8 8 8 8 9 8 8 8 8 "
};
