/* XPM */
static char *result[] = {
/* columns rows colors chars-per-pixel */
"41 41 155 2 ",
"   c #138800",
".  c #1C8902",
"X  c #288A06",
"o  c #388B0E",
"O  c #3C8B10",
"+  c #468D16",
"@  c #598E22",
"#  c #788F33",
"$  c #749032",
"%  c #7B9035",
"&  c #839039",
"*  c #9D9349",
"=  c #AB9451",
"-  c #BD975E",
";  c #B4BA62",
":  c #C69862",
">  c #D4996A",
",  c #E19C75",
"<  c #EC9D7B",
"1  c #F49C7E",
"2  c #CCBA6D",
"3  c #D1B76F",
"4  c #DFB775",
"5  c #D5BD72",
"6  c #DBBC74",
"7  c #ECA57A",
"8  c #E5AF78",
"9  c #EAAA7A",
"0  c #F2A07D",
"q  c #E2B576",
"w  c #E0B876",
"e  c #E3B479",
"r  c #BDC367",
"t  c #C9C46C",
"y  c #C5CC6B",
"u  c #CBCE6D",
"i  c #D0CC6F",
"p  c #CBD26E",
"a  c #C2C871",
"s  c #CECB76",
"d  c #CFC778",
"f  c #CEC878",
"g  c #D4C471",
"h  c #D8C073",
"j  c #D1CA70",
"k  c #D0C47C",
"l  c #D8C97B",
"z  c #CDD474",
"x  c #CFD67A",
"c  c #D1D77E",
"v  c #E97CBE",
"b  c #FF36FA",
"n  c #FF39FA",
"m  c #F554DF",
"M  c #F45ADD",
"N  c #EE6CCC",
"B  c #EB75C4",
"V  c #E978C0",
"C  c #EF67D0",
"Z  c #F065D2",
"A  c #FE44EE",
"S  c #FA49EC",
"D  c #F653E2",
"F  c #FA5FEE",
"G  c #FC43F2",
"H  c #FF42FA",
"J  c #FF4BFA",
"K  c #FD54F5",
"L  c #FF53FB",
"P  c #FF5FFB",
"I  c #FF64FB",
"U  c #FF6AFB",
"Y  c #FF75FB",
"T  c #FF7FFC",
"R  c #F58F8F",
"E  c #F49E81",
"W  c #F5918F",
"Q  c #D7AF8F",
"!  c #DBB185",
"~  c #D2BE80",
"^  c #DAA796",
"/  c #DBA399",
"(  c #DAB196",
")  c #EEAB83",
"_  c #E7A289",
"`  c #F5A387",
"'  c #F5A78C",
"]  c #EDB289",
"[  c #F6AE96",
"{  c #F7AF98",
"}  c #F8AF98",
"|  c #EFBA94",
" . c #F7B39C",
".. c #DE9AA0",
"X. c #E094A7",
"o. c #E38AB0",
"O. c #E1A5A8",
"+. c #F7B7A1",
"@. c #F7B9A3",
"#. c #F8BEAA",
"$. c #D0C481",
"%. c #DDC681",
"&. c #D7C48D",
"*. c #DBCF88",
"=. c #D3D983",
"-. c #D5DB8A",
";. c #CDD194",
":. c #D7D290",
">. c #D7DD91",
",. c #D9DC93",
"<. c #D1D79A",
"1. c #DADE9A",
"2. c #DCE09E",
"3. c #F4C4A9",
"4. c #E1DCAD",
"5. c #F9C6B4",
"6. c #DFE3A5",
"7. c #E1E4AB",
"8. c #E3E7B2",
"9. c #E5E9B6",
"0. c #E7EABA",
"q. c #E8EBBF",
"w. c #F798E7",
"e. c #FF85FC",
"r. c #FF89FC",
"t. c #FF93FC",
"y. c #FFA8FD",
"u. c #FFB3FD",
"i. c #FFB9FD",
"p. c #E9C3C1",
"a. c #FBD7CB",
"s. c #F7DECE",
"d. c #EAEDC3",
"f. c #EDEFCB",
"g. c #FDE4DC",
"h. c #EFF1D2",
"j. c #F0F2D5",
"k. c #F4F4DD",
"l. c #FFC1FD",
"z. c #FFCBFE",
"x. c #FFD2FD",
"c. c #FFDDFE",
"v. c #FDEAE3",
"b. c #F6F7E4",
"n. c #F6F8E7",
"m. c #FCF4EE",
"M. c #F7F8E8",
"N. c #F9FAEE",
"B. c #FEEEF7",
"V. c #FFE3FE",
"C. c #FFE9FE",
"Z. c #FDF4F1",
"A. c #FDFAF6",
"S. c #FFF6FF",
"D. c #FFFFFF",
/* pixels */
"p p p p p p ; ; p p z 9.D.D.D.D.D.D.D.D.D.D.D.D.D.d.p p p 0.g.` 0 h p p p p p p p ",
"p p p p p p r r p z 9.M.D.D.D.D.D.D.D.D.D.D.D.D.D.A.q.z p 0.Z.s.%.i p p p p p p p ",
"p p p p p p y y z 6.M.D.D.D.D.D.D.D.D.D.D.D.D.D.D.D.A.8.7.9.q.9.x p p p p p p p p ",
"p p p p p s y r 2.A.D.D.D.D.D.D.D.D.D.D.D.D.D.D.D.D.D.D.D.8.p p p p p p p p p p z ",
"p p p p p p r ;.A.A.A.A.A.A.A.A.A.A.A.A.A.A.A.D.D.D.D.D.D.9.z p p p p p p p p p p ",
"p p p p p p y <.Z.@.} } { { [ [ } } } } { }  .Z.D.D.D.D.D.A.d.p p p p p p p p p p ",
"p p p p p p y $.#.E * # # & , = # % % > 1 1 E #.v.D.D.D.D.D.h.z p p p p p p p p p ",
"p p p p p p y 2 1 < @     X : $     . - E 1 E +.v.D.D.D.D.D.h.p p p p p p p p p p ",
"p p p p p p p 5 ' < $ o O + > * o O + : E E { m.D.D.D.D.D.D.j.z p p p p p p p p p ",
"p p p p y p p 1.v.' , , , , E < , , , < 1  .Z.D.D.D.D.D.D.D.h.z p p p p p p p p p ",
"p p p p p p p 2.A.v.g.g.g.g.g.g.g.g.g.g.g.v.D.D.D.D.D.D.D.f.-.p p p p p p p p p p ",
"p p p p p p p -.d.A.D.D.D.D.D.D.D.D.D.D.D.D.D.D.D.D.D.D.f.>.p p p p p p p p p p p ",
"p p p p p p p p c j.A.D.D.D.D.D.D.D.D.D.D.D.D.D.D.D.D.x.:.p p p p p p p p p p p p ",
"p p p p p p p p z z h.A.D.D.D.D.D.D.D.D.D.D.D.D.D.D.x.K Q p p p p p p p p p p p p ",
"p p p p p p p p p p c q.D.D.D.D.D.D.D.D.D.D.D.D.D.l.L G Q p p p p p p p p p p p p ",
"p p p p p p p p p p p -.6.4.w.r.r.r.r.r.r.r.r.r.r.U n n C ^ p p p p p p p p p p p ",
"p p p p p p y y p p p p p f D b b b b b b b b b b b n n n o.p p p p p p p p p p p ",
"p p p p y p y y p p p p p f C G n n n b n n n n n b n n n v d p p p p p u p p p p ",
"p p p p p p u p p p p p p s j N n n n n n n H n H n n n n G N s p p p p p p p p p ",
"p p p p p p p p p p p p p p p B n n n n b P z.z.z.t.n n n n G N k p p p p p p p p ",
"p p p p p p p j w 4 4 w 6 p p / C n n b U i.D.D.D.c.r.n n n n S ~ p p p p p p p p ",
"p p p p p p p 5 1 1 1 1 ) >.z p ..b n P i.D.D.D.D.D.V.J b n n S ! g g g p p p p p ",
"p p p p y p p 5 1 1 1 0 @.N.>.z O.J L z.D.D.D.D.D.D.x.J b n b A W 0 1 7 y p p p p ",
"p p p p p p y 3 1 1 1 5.Z.D.N.n.Z.V.V.S.D.D.D.D.D.i.L n n n n A W 1 1 7 t p p p p ",
"p p p p p p p t 6 6 6 *.9.A.D.D.D.D.D.D.D.D.D.D.D.u.b n n n b G R 1 1 7 y p p p p ",
"p p p p p p p y p p p p =.f.A.D.D.D.D.D.D.D.D.D.x.e.b n n n n A _ e 8 4 u p p p p ",
"p p p p p p p y p p p p p x h.n.N.D.D.D.D.S.c.c.Y b n n n n n S ~ p z p y p p p p ",
"p p p p p p y y u p p p p p x z 4.D.S.S.D.z.J J H n n n n n n S $.p p a y p p p p ",
"p p p p p p y 2 e u p p p p p s ( U U U U P n n n n n n n n n S ~ p p p p p p p p ",
"p p p p p p y 3 0 e j z p p p / Z b b b b n n n b I t.n b b b S ~ p p p y p p p p ",
"p p p p p p y 3 1 1 4 h l ,.( Z n n b n n n n n b r.V.T Y Y I S 5 p p p p p p p p ",
"p p p p p p p 5 1 1 1 1  .B.Y H n n n n n n n n H t.D.D.D.D.z.F &.z p p p p p p p ",
"p p p p p p p 5 1 1 1 1 } A.C.e.b n n n n n n n y.S.D.D.D.D.S.C.m.1.p p p p p p p ",
"p p p p p p p h 1 1 1 1  .A.D.c.t.n n n n b n n i.D.D.D.D.D.D.A.5.] 5 p u p p p p ",
"p p p p p p p g 8 1 1 1  .A.D.x.e.n n n M v V V p.k.D.D.D.D.D.m.' 1 9 h u p p p p ",
"p p p p p p y p i 9 9 7 | k.b.w.D M m D X.p p p p 6.D.D.D.D.A.g.' 1 0 8 u p p p p ",
"p p p p p p p p p p z i z x z s j f s s z p p p p 6.A.A.D.D.g.` 1 1 e p p p p p p ",
"p p p p p p p p p p p p p p p p p p z p p p p p p x -.1.n.a.[ 1 1 q j p p p p p p ",
"p p p p p p p p p p p p p p p p p p p p p p p p p p i w 3.} 7 w 4 j p p p p p p p ",
"p p p p p p p p p p p p p p p p p p p p p p p p p u 4 0 1 7 q u p p p p p p p p p ",
"p p p p p p p p p p p p p p p p p p p p p p p p p 6 1 1 1 w i p p p p y p p p p p "
};
