/* XPM */
static char *_e039877d9174462c2aa21d89eabf667WKQGQg4dMe1Jfu8n[] = {
/* columns rows colors chars-per-pixel */
"41 41 184 2 ",
"   c #161A2F",
".  c #181C2F",
"X  c #171B30",
"o  c #191C31",
"O  c #321D33",
"+  c #1D2136",
"@  c #1E2238",
"#  c #262B33",
"$  c #21253B",
"%  c #25293E",
"&  c #2F3435",
"*  c #313636",
"=  c #363B37",
"-  c #432339",
";  c #56243A",
":  c #3C4239",
">  c #41473A",
",  c #484E3C",
"<  c #4C533D",
"1  c #52593F",
"2  c #262A42",
"3  c #292D44",
"4  c #2D3145",
"5  c #2E334B",
"6  c #323046",
"7  c #32364B",
"8  c #35384C",
"9  c #353A52",
"0  c #3A3E52",
"q  c #3A3F5D",
"w  c #743D52",
"e  c #3E4256",
"r  c #3E4258",
"t  c #42474C",
"y  c #545B40",
"u  c #585F40",
"i  c #505649",
"p  c #53594C",
"a  c #434854",
"s  c #434659",
"d  c #595F58",
"f  c #5A6055",
"g  c #626A43",
"h  c #62694E",
"j  c #6B7345",
"k  c #6D744D",
"l  c #707946",
"z  c #636A51",
"x  c #6A7152",
"c  c #727A51",
"v  c #747B59",
"b  c #404562",
"n  c #454963",
"m  c #4A4D63",
"M  c #494E6C",
"N  c #4E5164",
"B  c #4D526B",
"V  c #545863",
"C  c #52566C",
"Z  c #55596C",
"A  c #545976",
"S  c #595D74",
"D  c #5B5F79",
"F  c #5E6463",
"G  c #5D6176",
"H  c #5D617A",
"J  c #636966",
"K  c #646A6E",
"L  c #747A62",
"P  c #72766B",
"I  c #626577",
"U  c #62667D",
"Y  c #65687F",
"T  c #6B6E7D",
"R  c #6D717A",
"E  c #757876",
"W  c #832E43",
"Q  c #973147",
"!  c #815367",
"~  c #B44D61",
"^  c #B96476",
"/  c #7C8449",
"(  c #7F884A",
")  c #7A8251",
"_  c #838C4B",
"`  c #88914D",
"'  c #929B4F",
"]  c #838B52",
"[  c #949E50",
"{  c #9BA552",
"}  c #9FA952",
"|  c #A3AD53",
" . c #A7B255",
".. c #ABB656",
"X. c #AEB956",
"o. c #B1BC57",
"O. c #B4BF58",
"+. c #B6C159",
"@. c #BAC55A",
"#. c #BDC85A",
"$. c #C2CE5C",
"%. c #C6D25D",
"&. c #C8D45D",
"*. c #585F84",
"=. c #5F668E",
"-. c #616583",
";. c #666A82",
":. c #696C89",
">. c #7C6D83",
",. c #6F7181",
"<. c #6E7289",
"1. c #707484",
"2. c #75798B",
"3. c #6D7395",
"4. c #69709A",
"5. c #727691",
"6. c #757993",
"7. c #797D96",
"8. c #70769B",
"9. c #757B9C",
"0. c #7A7F9A",
"q. c #757CA2",
"w. c #897186",
"e. c #A87E8F",
"r. c #7E8192",
"t. c #7F819A",
"y. c #7D83A5",
"u. c #7F85A9",
"i. c #83868F",
"p. c #828594",
"a. c #868996",
"s. c #85889A",
"d. c #87899A",
"f. c #898C9B",
"g. c #B68393",
"h. c #8488A3",
"j. c #8A8DA4",
"k. c #858AAB",
"l. c #8A8EA9",
"z. c #8D90A4",
"x. c #8E92AD",
"c. c #9295A3",
"v. c #9699AA",
"b. c #8C91B1",
"n. c #9196B3",
"m. c #9599B4",
"M. c #9A9DB5",
"N. c #9A9EBB",
"B. c #A897A9",
"V. c #B696A9",
"C. c #AC9EB4",
"Z. c #9DA1B7",
"A. c #9EA2BA",
"S. c #A0A2AC",
"D. c #A3A5B2",
"F. c #A1A5BE",
"G. c #A6A9BD",
"H. c #ABADBD",
"J. c #C894A4",
"K. c #CDABB8",
"L. c #A2A6C1",
"P. c #A6AAC3",
"I. c #AAADC3",
"U. c #AEB1C7",
"Y. c #AFB2C8",
"T. c #B4B5C3",
"R. c #B3B6CA",
"E. c #B7BAC8",
"W. c #BABDCE",
"Q. c #BCBED1",
"!. c #BFC0CB",
"~. c #BEC1D1",
"^. c #C2C4CE",
"/. c #C3C5D6",
"(. c #CBCCD5",
"). c #C7C9D8",
"_. c #CBCDDB",
"`. c #CED0DC",
"'. c #D1D2DD",
"]. c #D4D5E0",
"[. c #D6D8E3",
"{. c #DCDDE5",
"}. c #DEDFE8",
"|. c #DFE0E8",
/* pixels */
"&.&.&.&.&.&.&.&.&.&.&.&.&.&.&.&.&.&.&.&.&.&.&.&.&.&.&.&.&.&.&.&.&.&.&.&.&.&.&.&.&.",
"&.&.&.&.&.&.&.&.&.&.&.&.&.&.&.&.&.&.&.&.&.&.&.&.&.&.&.&.&.&.&.&.&.&.&.&.&.&.&.&.&.",
"&.&.&.&.&.&.&.&.&.&.&.&.&.%.%.%.&.%.&.&.&.&.&.&.&.&.&.&.&.&.&.&.&.&.&.&.&.&.&.&.&.",
"&.&.&.&.&.&.&.&.&.&.&.%.&.( &                 .       g o.&.&.&.&.&.&.&.&.&.&.&.&.",
"&.&.&.&.&.&.&.&.&.&.$.o.} c a 0 a a s s s s a s a 0 9 z ' ..#.&.&.&.&.&.&.&.&.&.&.",
"&.&.&.&.&.&.&.&.&.&.+.( , F 2.h.v.D.D.D.D.D.D.D.M.j.7.K i j | &.&.&.&.&.&.&.&.&.&.",
"&.&.&.&.&.&.&.&.#.o.[ h 7 ;.Z.Q.'.{.{.{.|.{.|.|.[./.U.7.s p _ ..@.&.&.&.&.&.&.&.&.",
"&.&.&.&.&.&.&.%.| l p K 6.M.~.].{.{.}.}.|.|.|.{.{.'._.G.s.T f g ' &.&.&.&.&.&.&.&.",
"&.&.&.&.&.&.&.%.[ , 3 ;.L.Q.[.|.|.|.|.|.|.|.|.|.|.|.{.).I.7.s & / &.&.&.&.&.&.&.&.",
"&.&.&.&.&.&.&.&.[ < 3 ;.L.Q.[.|.|.|.|.|.|.|.|.|.|.|.}.).I.0.q & / &.&.&.&.&.&.&.&.",
"&.&.&.&.&.&.&.%.[ , 2 -.N.R._.{.{.|.|.|.|.|.}.}.|.{.[.Q.L.5.0 * / &.&.&.&.&.&.&.&.",
"&.&.&.&.&.&.&.%.[ , $ A u.N.R./.].|.|.|.|.|.}.}.[._.W.F.k.-.9 & / &.&.&.&.&.&.&.&.",
"&.&.&.&.&.&.&.&.[ , @ M q.u.x.H.).[.{.|.}.}.}.{._.T.n.k.q.*.5 # / %.&.&.&.&.&.&.&.",
"&.&.&.&.&.&.%.&.[ , 2 D b.3.S <.M./.'.|.}.}.].).I.7.C :.k.:.9 * / &.&.&.&.&.&.&.&.",
"&.&.&.&.&.&.%.%.[ , 3 ;.L.;.3 q 5.F./.{.{.{.).I.h.C X C x.7.s & / &.&.&.&.&.&.&.&.",
"&.&.&.&.&.&.&.%.[ , 3 ;.L.;.3 2 s U z.Q.Q.Q.D.<.m 7   C x.7.q & / &.&.&.&.&.&.&.&.",
"&.&.&.&.&.&.&.%.' , 3 ;.L.;.2   X 6 :.P.P.L.p.s o o   C b.q.r & / &.&.&.&.&.&.&.&.",
"&.&.&.&.&.&.%.%.' , 3 ;.L.;.3 O ; w e.).)./.B.! ; O   C x.w.r & / &.&.&.&.&.&.&.&.",
"&.&.&.&.&.&.%.&.{ < 6 Y N.;.3 - W ~ J.[.{.[.K.^ Q w   C l.7.s * ( %.&.&.&.&.&.&.&.",
"&.&.&.&.&.&.&.&.X.` k J D D I >.g.g.C.L.F.F.C.V.e.w.S S D K x / | &.&.&.&.&.&.&.&.",
"&.&.&.&.&.&.&.&.%.%.X.g X C x.R.`._.A.4.4.4.x.Q.].Q.F.;.3 < [ %.&.&.&.&.&.&.&.&.&.",
"&.&.&.&.&.&.&.%.X.` g : X I H.P.z.t.c.F.A.L.M.f.s.D.~.2.4 * 1 ( | &.&.&.&.&.&.&.&.",
"&.&.&.&.&.&.%.%.[ < .   o T ^.D.Z 8 f.|.{.[.D.Z 0 f.{.a.6 . + = ( &.&.&.&.&.&.&.&.",
"&.&.&.&.%.&.| _ v P 1.1.R 2.7.U 8 % Z p.r.p.I 8 % C a.2.1.T 1.E v / { #.&.&.&.&.&.",
"&.&.&.&.%.%._ = V S.'.'.'.p.0 o X X + $ $ $ @   . + $ ,.E.].`.H.R # j X.%.%.&.&.&.",
"&.&.%.#.{ / L R p.H.W.D.a.;.n b B Z G T T T H G B n q D 2.v.T./.z.T L ) / ( &.&.&.",
"&.&.%.X.j # R T./.R.m.H 2 b *.8.k.A.E.(.(.(.~.A.x.q.-.M 7 N s.U.!.(.i.e # # &.&.&.",
"&.&.%...g X T ^.]./.D.I X n 8.n.I.W.R.Y.Y.R.R.R.R.m.u.A 2 m j./.(.|.i.8 . . &.&.&.",
"&.&.%.X.g o ,./.{.[.E.T X C k.U.).).A.q.q.q.m.~.'.R.N.-.3 N D.[.|.|.a.8 .   &.&.&.",
"&.%.%.+.` u P a.c.c.i.s   e -.s.A.U.m.u.u.u.b.L.P.j.<.m $ 0 1.c.c.c.) F u u &.&.&.",
"&.&.%.$.@.../ t 5 5 4 @   + 2 b :.u.b.N.A.A.b.u.3.B 3 + . $ 3 8 8 8 x { X.X.&.&.&.",
"&.&.&.%.%.%.[ g y y , & X 3 r A 4.y.9.6.5.5.9.t.3.=.n 7 + # > 1 1 1 _ +.%.%.&.&.&.",
"&.&.&.&.%.%.@.X. . .[ 1 X n 0.x.m.l.D 5 5 5 B 9.m.x.j.A % : (  . . .+.#.%.&.&.&.&.",
"&.&.&.&.&.&.&.&.%.%.O._ < J ,.6.6.1.F < < < d T 7.6.2.K i l  .%.%.%.%.&.&.&.&.&.&.",
"&.&.&.&.&.&.&.&.&.%.$.o.} c t 7 7 t c | | } ] p 8 8 8 z { ..#.&.&.%.&.&.&.&.&.&.&.",
"&.&.&.&.&.&.&.&.&.&.%.%.$./ & X X * / %.%.%.[ , X   + g X.%.%.&.&.&.&.&.&.&.&.&.&.",
"&.&.&.&.&.&.&.&.&.&.%.%.$.c & X . * _ %.%.$.[ , X X . g X.%.%.&.&.&.&.&.&.&.&.&.&.",
"&.&.&.&.&.&.&.&.&.&.%.%.%./ &   X * / %.%.%.' , X X + g X.%.%.&.&.&.&.&.&.&.&.&.&.",
"&.&.&.&.&.&.&.&.&.&.&.&.&.&.%.&.&.&.&.&.%.%.&.&.&.&.&.&.%.&.&.&.&.&.&.&.&.&.&.&.&.",
"&.&.&.&.&.&.&.&.&.&.&.&.&.&.&.&.&.&.&.&.&.%.&.&.&.&.&.&.%.%.&.&.&.&.&.&.&.&.&.&.&.",
"&.&.&.&.&.&.&.&.&.&.&.&.&.&.&.&.&.&.&.&.&.&.&.&.&.&.&.&.&.&.&.&.&.&.&.&.&.&.&.&.&."
};
