/* XPM */
static char *_44e31360ef54771869a6e75bdfd4b92jIb96WdODBrYVkEM[] = {
/* columns rows colors chars-per-pixel */
"41 41 155 2 ",
"   c #138800",
".  c #1C8902",
"X  c #288A06",
"o  c #388B0E",
"O  c #3C8B10",
"+  c #468D16",
"@  c #598E22",
"#  c #788F33",
"$  c #749032",
"%  c #839039",
"&  c #88923E",
"*  c #9D9349",
"=  c #AB9451",
"-  c #BD975E",
";  c #B4BA62",
":  c #C69862",
">  c #D4996A",
",  c #E19C75",
"<  c #EC9D7B",
"1  c #F49C7E",
"2  c #CEB56E",
"3  c #CCBA6D",
"4  c #D1B76F",
"5  c #DFB775",
"6  c #D5BD72",
"7  c #DBBC74",
"8  c #ECA57A",
"9  c #E5AF78",
"0  c #EAAA7A",
"q  c #F2A07D",
"w  c #E2B576",
"e  c #E0B876",
"r  c #E3B479",
"t  c #BDC367",
"y  c #C9C46C",
"u  c #C5CC6B",
"i  c #CBCE6D",
"p  c #D0CC6F",
"a  c #CBD26E",
"s  c #C2C871",
"d  c #CECB76",
"f  c #CFC778",
"g  c #CEC878",
"h  c #D4C471",
"j  c #D8C073",
"k  c #D1CA70",
"l  c #D0C47C",
"z  c #D8C97B",
"x  c #CDD474",
"c  c #CFD67A",
"v  c #D1D77E",
"b  c #E97CBE",
"n  c #FD3EF5",
"m  c #FF36FA",
"M  c #FF39FA",
"N  c #F554DF",
"B  c #F45ADD",
"V  c #EE6CCC",
"C  c #EB75C4",
"Z  c #E978C0",
"A  c #EF67D0",
"S  c #F065D2",
"D  c #FE44EE",
"F  c #FA49EC",
"G  c #F653E2",
"H  c #FA5FEE",
"J  c #FC43F2",
"K  c #FF42FA",
"L  c #FF4BFA",
"P  c #FD54F5",
"I  c #FF53FB",
"U  c #FF5FFB",
"Y  c #FF64FB",
"T  c #FF6AFB",
"R  c #FF75FB",
"E  c #FF7FFC",
"W  c #F58F8F",
"Q  c #F49E81",
"!  c #D7AF8F",
"~  c #DBB185",
"^  c #D2BE80",
"/  c #DAA796",
"(  c #DBA399",
")  c #DAB196",
"_  c #EEAB83",
"`  c #E7A289",
"'  c #F5A387",
"]  c #F5A78C",
"[  c #F5A88D",
"{  c #EDB289",
"}  c #F6AE96",
"|  c #F7AF98",
" . c #F8AF98",
".. c #EFBA94",
"X. c #F7B39C",
"o. c #DE9AA0",
"O. c #E094A7",
"+. c #E38AB0",
"@. c #E1A5A8",
"#. c #F7B7A1",
"$. c #F7B9A3",
"%. c #F8BEAA",
"&. c #D7C48D",
"*. c #DBCF88",
"=. c #D3D983",
"-. c #D5DB8A",
";. c #CDD194",
":. c #D7D290",
">. c #D7DD91",
",. c #D9DC93",
"<. c #D1D79A",
"1. c #DADE9A",
"2. c #DCE09E",
"3. c #F4C4A9",
"4. c #F8C0AC",
"5. c #E1DCAD",
"6. c #F9C6B4",
"7. c #DFE3A5",
"8. c #E1E4AB",
"9. c #E3E7B2",
"0. c #E5E9B6",
"q. c #E7EABA",
"w. c #E8EBBF",
"e. c #F798E7",
"r. c #FF85FC",
"t. c #FF89FC",
"y. c #FF93FC",
"u. c #FFA8FD",
"i. c #FFB3FD",
"p. c #FFB9FD",
"a. c #E9C3C1",
"s. c #FBD7CB",
"d. c #F7DECE",
"f. c #EAEDC3",
"g. c #EDEFCB",
"h. c #FDE4DC",
"j. c #EFF1D2",
"k. c #F0F2D5",
"l. c #F4F4DD",
"z. c #FFC1FD",
"x. c #FFCBFE",
"c. c #FFD2FD",
"v. c #FFDDFE",
"b. c #FDEAE3",
"n. c #F6F7E4",
"m. c #F6F8E7",
"M. c #FCF4EE",
"N. c #F7F8E8",
"B. c #F9FAEE",
"V. c #FFE3FE",
"C. c #FFE9FE",
"Z. c #FDF4F1",
"A. c #FDFAF6",
"S. c #FFF6FF",
"D. c #FFFFFF",
/* pixels */
"a a a a a a a j 1 ' h.q.a a a f.D.D.D.D.D.D.D.D.D.D.D.D.D.0.x a a ; ; a a a a a a ",
"a a a a a a a p z d.Z.q.a c w.B.D.D.D.D.D.D.D.D.D.D.D.D.D.N.0.x x t t a a a a a a ",
"a a a a a a a a c 0.w.0.8.0.A.D.D.D.D.D.D.D.D.D.D.D.D.D.D.D.m.8.c t t a a a a a a ",
"a a a a a a a a a a a 9.D.D.D.D.D.D.D.D.D.D.D.D.D.D.D.D.D.D.D.A.1.s u a a a a a a ",
"a a a a a a a a a a x 0.D.D.D.D.D.D.A.A.A.A.A.A.A.A.A.A.A.A.A.A.A.;.u a a a a a a ",
"a a a a a a a a a a w.A.D.D.D.D.D.M.X.} |  . . . . .}  .}  . .$.Z.<.u a a a a a a ",
"a a a a a a a a a x k.D.D.D.D.D.b.%.Q 1 Q > % # # = , % # # * Q 4.l u a a a a a a ",
"a a a a a a a a a x k.D.D.D.D.D.b.#.Q 1 Q - .     # > X     @ < 1 2 u a a a a a a ",
"a a a a a a a a a a k.D.D.D.D.D.D.M.X.' 1 : O O o & > + O O $ Q ] h u a a a a a a ",
"a x a a a a a a a a k.D.D.D.D.D.D.D.M.X.Q Q , , , < < , , , < ] b.2.a a a a a a a ",
"a x a a a a a a a a -.g.D.D.D.D.D.D.D.b.h.h.h.h.h.h.h.h.h.h.h.h.A.2.a a a a a a a ",
"a a a a a a a a a a a >.g.D.D.D.D.D.D.D.D.D.D.D.D.D.D.D.D.D.D.A.f.-.a a a a a a a ",
"a a a a a a a a a a a a :.c.S.D.D.D.D.D.D.D.D.D.D.D.D.D.D.D.A.j.c a a a a a a a a ",
"a a a a a a a a a a a a ~ P c.D.D.D.D.D.D.D.D.D.D.D.D.D.D.D.j.x a a a a a a a a a ",
"a a a a a a a a a a a a ! J I z.D.D.D.D.D.D.D.D.D.D.D.D.D.w.v a a u a a a a a a a ",
"a a a a a a a a a a a / A n M T t.t.t.t.t.t.t.t.t.t.e.5.7.-.a a a a a a a a a a a ",
"a a a a a i a a a a a +.M M M m m m m m m m m m m m G f d a a a a u i a i a a a a ",
"a a a a i a a a a x f b M M M M m M M M M M m M m J V g a a a a a u u a u a a a a ",
"a a a a a a a a x d V n M M M n K n n M m M M M M V g a a a a a a a a a a a a a a ",
"a a a a a a a a f V J M M M m y.x.x.x.U m M M M M C a a a a a a a a a a a a a a a ",
"a a a a a a a a ^ F m m M K t.v.D.D.D.p.T m M M A ( a a j e e e e p a a a a a a a ",
"a a a a i h h h ~ F M M M L v.D.D.D.D.D.p.U M M o.a x >._ 1 1 1 1 6 a a a a a a a ",
"a a a a i 8 1 1 W D m M M K x.D.D.D.D.D.D.x.I L @.c ,.M.$.' 1 1 1 j a a i a a a a ",
"a a a a u 0 1 1 W D M M m n I z.D.D.D.D.D.S.V.V.M.m.N.D.M.4.1 1 1 4 u a u a a a a ",
"a a a a i 8 < 1 W D M M M M m i.D.D.D.D.D.D.D.D.D.D.D.D.0.*.6 6 6 y u a a a a a a ",
"a a a a i 5 r r ` D M M M M m r.c.D.D.D.D.D.D.D.D.D.A.g.=.a a a a i a a a a a a a ",
"a a a a i a a a ^ F M M M m M m R V.v.S.D.D.D.D.B.m.j.x a a a a a i i a a a a a a ",
"a a a a u i a a ^ F M M M M M M n L L x.S.D.S.D.8.x x x a a a a a u u a a a a a a ",
"a a a a i a a a ^ F m M M M M M M m M U T T T T @.a a a a a a p w 3 u a a a a a a ",
"a a a a u a a a ^ F m m m M y.Y m M M m m m m m A ( a a a a k w q 2 u a a a a a a ",
"a a a a u a a a ^ F Y R R r.C.t.m M M M M M M M M S ) 1.z j e 1 1 4 a a a a a a a ",
"a a a a a a a x &.H x.D.S.D.D.y.K M M M M M M M m J R Z.X.1 1 1 1 6 a a a a a a a ",
"a a a a a a a 1.M.C.S.D.D.D.D.S.u.M M M M M M M M E C.A.X.1 1 1 1 j a a a a a a a ",
"a a a a a a 6 { 6.A.D.D.D.D.D.D.p.n M M M M M M y.v.D.D.X.1 1 1 1 6 a p a a a a a ",
"a a a a i 6 0 1 ] Z.D.D.D.D.D.l.a.Z Z b B M M M r.x.D.A.X.1 1 1 9 k a a a a a a a ",
"a a a a u 9 1 1 ] h.A.D.D.D.D.7.a a a a O.G G B N e.n.n...8 8 0 p a a a a a a a a ",
"a a a a a a r 1 1 ' h.D.D.D.A.7.a a a a d d d g f d x c a a p a a i u a a a a a a ",
"a a a a a a k 5 1 1 [ s.n.,.-.c a a a a a a a a a a a a a a a a a a a a a a a a a ",
"a a a a a a a k 5 e 8 X.3.e i a a a a a a a a a a a a a a a a a a a i a a a a a a ",
"a a a a a a a a a a 5 q 1 q 7 k a a a a a a a a a a a a a a a a a a a a a a a a a ",
"a a a a a i a a a a a e 1 1 Q 7 a a a a a a a a a a a a a a a a a a a a a x a a a "
};
