/* XPM */
static char *ea6184f7a10a47ecc9ed99510fd3acc2WJcSauwNSTxHtPHE[] = {
/* columns rows colors chars-per-pixel */
"41 41 116 2 ",
"   c #B7BD63",
".  c #F49C7E",
"X  c #DDBB74",
"o  c #DEBC7A",
"O  c #EEA37B",
"+  c #EAAA7B",
"@  c #F0A17D",
"#  c #E2B377",
"$  c #E4B179",
"%  c #BDC467",
"&  c #C1C768",
"*  c #C5CD6B",
"=  c #C9CF6D",
"-  c #D0CC6F",
";  c #C7D06B",
":  c #CBD26E",
">  c #CECD70",
",  c #D5C471",
"<  c #D1CA71",
"1  c #D0C57B",
"2  c #CCD371",
"3  c #CFD67B",
"4  c #D3D57E",
"5  c #F87BAB",
"6  c #F974B2",
"7  c #FE3DF5",
"8  c #FF36FA",
"9  c #FF39FA",
"0  c #F25CD7",
"q  c #F35ED8",
"w  c #EE6BCC",
"e  c #FA69C0",
"r  c #EB72C4",
"t  c #F265D8",
"y  c #FD47E7",
"u  c #FC44EE",
"i  c #F750E6",
"p  c #FF41FA",
"a  c #FF4DFA",
"s  c #FD54F5",
"d  c #FF55FB",
"f  c #FF5EFB",
"g  c #FE6AEC",
"h  c #FD62F5",
"j  c #FD6FF5",
"k  c #FF60F8",
"l  c #FF6BFB",
"z  c #FF75FB",
"x  c #DD9E9D",
"c  c #F59485",
"v  c #F49E81",
"b  c #F7839C",
"n  c #D7AE8F",
"m  c #D3BB83",
"M  c #D7B48E",
"N  c #D7BA8F",
"B  c #DAA496",
"V  c #DEA39E",
"C  c #F5A286",
"Z  c #F6AF94",
"A  c #F7A79D",
"S  c #F899AF",
"D  c #E38AB1",
"F  c #E39BB0",
"G  c #F4BAA7",
"H  c #F8BFAA",
"J  c #E3A4B0",
"K  c #DFC181",
"L  c #D3CB84",
"P  c #D2D882",
"I  c #D6DC8D",
"U  c #D7D790",
"Y  c #D8DD92",
"T  c #DCE09B",
"R  c #F6C0A7",
"E  c #F8C0A9",
"W  c #E2DEA6",
"Q  c #E3DDB2",
"!  c #DEE2A2",
"~  c #E3E7B2",
"^  c #EDE2BD",
"/  c #F3ADDB",
"(  c #F89FEA",
")  c #FF81FC",
"_  c #FF89FC",
"`  c #FBAAF2",
"'  c #FFA6FF",
"]  c #FFAEFD",
"[  c #FFB5FD",
"{  c #FFBAFC",
"}  c #F7D7C4",
"|  c #FBD8CD",
" . c #EFC4D2",
".. c #F2D3DA",
"X. c #F3DDDB",
"o. c #EAECC3",
"O. c #ECEFCB",
"+. c #F3E5CA",
"@. c #F8E5D1",
"#. c #FCE7DB",
"$. c #EEF1D1",
"%. c #F0F2D5",
"&. c #F3F4DB",
"*. c #FFC3FD",
"=. c #FFCCFE",
"-. c #FFD3FE",
";. c #FFD9FE",
":. c #FDEDE7",
">. c #F6F7E5",
",. c #F8F9EB",
"<. c #FFE4FD",
"1. c #FFEBFD",
"2. c #FEF1F5",
"3. c #FAFAF0",
"4. c #FFF2FF",
"5. c #FFFFFF",
/* pixels */
"* * ; : : : : : : : : : : 3 ,.5.5.5.5.5.5.5.5.5.5.5.,.3 : : : : : : : : : : : : : ",
"; ; ; : : : : : : : : : P $.3.5.5.5.5.5.5.5.5.5.5.5.3.$.P 2 : : : : : : : : : : : ",
"; : : : : : : : : : : I o.5.5.5.5.5.5.5.5.5.5.5.5.5.5.5.o.I : : : : : : : 2 : : : ",
": : : : : : : : : : 4 o.5.5.5.5.5.4.;.;.-.<.5.5.5.5.5.5.5.o.P 2 : : : : : : : : : ",
": : : : : : : : : 2 $.5.5.5.5.5.5.<.d p p z 4.5.5.5.5.5.5.5.$.: : : : : : : : : : ",
": : : : : : : : : 2 %.5.5.5.5.5.5.<.a 8 8 7 l 1.5.5.5.5.5.5.$.2 : : : : : : : : : ",
": : : : : : : : : 2 %.5.5.5.5.5.5.4.[ ] [ _ p ) ;.5.5.5.5.5.%.2 : : : : : : : : : ",
": : : : : : : : : 2 %.5.5.5.5.5.5.5.5.5.5.=.p 8 [ 5.5.5.5.5.%.2 : : : : : : : : : ",
": : : : : : : : : 2 %.5.5.5.5.5.5.5.5.5.5.;.f d *.5.5.5.5.5.%.2 : : : : : : : : : ",
"2 : : : : : : : : 2 %.5.5.5.5.5.5.5.5.5.5.4.1.1.4.5.5.5.5.5.%.2 : : : : : : : : : ",
": : : : : : : : : 2 %.5.5.5.5.5.5.5.5.5.5.5.5.5.5.5.5.5.5.5.%.2 : : : : : : : : : ",
": : : : : : : : : 2 ! &.5.5.5.5.5.5.5.5.5.5.5.5.5.5.5.5.5.&.! 2 : : : : : : : : : ",
": : : : : : : : : : : ! >.5.5.5.5.5.5.5.5.5.5.5.5.5.5.5.>.! : : : : : ; : : : : : ",
": : : : : : : : : : : : Y 3.5.5.5.5.5.5.5.5.5.5.5.5.5.3.Y : : : : : = * : : : : : ",
": : : : : : : : : : : : 2 Y ,.5.5.5.5.5.5.5.5.5.5.5.,.Y 2 : : : : : = * ; : : : : ",
": : : : : : : : : : : : 2 2 T / _ _ _ _ _ _ _ _ _ / T 2 2 : : : : : : : : : : : : ",
": : : : : : : : : : : : : = B 0 8 8 8 8 8 8 8 8 8 r : : : : : : : : : : : : : : : ",
": : : : : : - < < < 4 L m M i 9 9 9 9 8 9 9 8 9 9 w m 2 : : : : : : : : : : : : : ",
": : : : : : # @ @ O @.` u u 9 9 9 9 9 9 9 9 9 9 9 7 q 1 2 2 : : : : : : : : : : : ",
": : : : : : # . v v #.' 8 9 9 9 9 9 9 9 9 9 9 9 9 9 7 t ..! : : : : = = : : : : : ",
": : : : : : # . . v #.' 8 9 9 9 9 9 9 9 9 9 9 9 9 9 8 p -.&.T 2 : : : = : : : : : ",
": : : : : : X + + + Q ( 8 9 9 9 9 9 9 9 9 8 9 9 9 9 9 p -.5.>.Y 2 : : = : : : : : ",
": : : : : : : - : 2 3 D 9 9 9 9 9 9 9 9 9 9 9 9 9 9 9 p -.5.5.,.P : : : : : : : : ",
": : : : : : : : : : > D 9 9 9 9 9 9 9 9 9 9 9 9 9 9 9 p -.5.5.,.4 : : : : : : : : ",
": : : : : : : : : : : D 9 9 9 9 9 u 6 5 5 e 9 9 9 9 9 p -.5.5.3.P : : : : : : : : ",
": : : : : : : : : : : D 8 8 8 9 8 y c . . b 7 9 8 8 9 7  .+.| } K X - : : : : : : ",
": : : : : : : : : : : F f f f f f g A Z Z S k f f f f h N X O . . . # : : : : : : ",
": : : : : : : : : : : Q 1.1.1.1.1.1.2.2.2.2.1.1.1.1.1.1.U : X . . . # : : : : : : ",
": : : : : : : : : : : J l l l l l l l l l l l l l l l j N : , . . . # : : : : : : ",
": : : : : : : : : : : D 8 8 8 8 8 8 8 8 8 8 8 8 8 8 8 7 n ; < X X # , : : : : : : ",
": : : : : : : : : : : J l z z z f 9 9 9 9 9 9 8 9 8 8 7 n : : : : : * * : : : : : ",
": : : : : : : : : : : ~ 5.4.5.5.[ 9 9 8 9 9 9 a d a d s M : : : : : &   : : : : : ",
": : : : : : : : : : : ~ 5.5.5.5.{ 9 7 9 9 9 a =.1.<.<.<.U : : : : : = * : : : : : ",
": : : : : : : : : : : ~ 5.5.5.5.X.V x x x x V G E H R R 4 : : : : : = * : : : : : ",
": : : : : : : : : : : ~ 5.5.5.5.O.: : : : : = O . . . . , : : : : : = * : : : : : ",
": : : : : : : : : : : W :.:.:.:.^ : : : : : < @ . . . . , : : : : : = = : : : : : ",
": : : : : : : : : : : o C C C C $ 2 : : : : > O . . . . , : : : : : : : : : : : : ",
": : : : : : : : : : : X . . . . $ : : : : : < O . . . . , : : : : : : : : : : : : ",
": : : : : : : : : : : # . . . . $ : : : : : > X X X X X = : : : : : : : : : : : : ",
": : : : : * : : : : : X v . . . $ : : : : : : : = : : : : : : : : : : : : : : : : ",
": : : : : % * : : : : X . . . . $ : : : : : : : : : : : : : : : : : : : : : : : : "
};
